<svg xmlns="http://www.w3.org/2000/svg" xmlns:xlink="http://www.w3.org/1999/xlink" viewBox="0 0 571.66 189.76"><defs><linearGradient id="c" y1="119.1" x2="93.16" y2="119.1" gradientUnits="userSpaceOnUse"><stop offset="0" stop-color="#eed085"/><stop offset=".08" stop-color="#f0d58c"/><stop offset="1" stop-color="#c1832b"/></linearGradient><linearGradient id="K" x1="528.59" y1="142.91" x2="571.66" y2="142.91" xlink:href="#c"/><linearGradient id="e" x1="86.42" y1="-61.21" x2="-5.37" y2="-26.74" gradientTransform="rotate(3.17 -1431.785 1832.607)" xlink:href="#a"/><linearGradient id="f" x1="93.17" y1="14.88" x2="1.39" y2="49.35" xlink:href="#a"/><linearGradient id="b" x1="170.22" y1="18.53" x2="174.82" y2="25.11" gradientUnits="userSpaceOnUse"><stop offset="0" stop-color="#c8912b"/><stop offset=".5" stop-color="#f0d58c"/><stop offset=".6" stop-color="#efd384"/><stop offset=".75" stop-color="#eccd6f"/><stop offset=".93" stop-color="#e6c34d"/><stop offset="1" stop-color="#e4be3d"/></linearGradient><linearGradient id="g" x1="244.51" y1="24.71" x2="244.52" y2="24.66" xlink:href="#b"/><linearGradient id="h" x1="243.99" y1="24.4" x2="244" y2="24.35" xlink:href="#b"/><linearGradient id="i" x1="204.35" y1="36.33" x2="208.15" y2="22.42" xlink:href="#b"/><linearGradient id="j" x1="116.81" y1="8.73" x2="117.02" y2="9.85" gradientTransform="rotate(.61 -1568.083 8923.176)" xlink:href="#b"/><linearGradient id="k" x1="82.46" y1="18.88" x2="82.87" y2="21.59" gradientTransform="rotate(.61 -1568.083 8923.176)" xlink:href="#b"/><linearGradient id="l" x1="99.49" y1="15.81" x2="86.34" y2="11.93" gradientTransform="rotate(.61 -1568.083 8923.176)" xlink:href="#b"/><linearGradient id="m" x1="167.59" y1="36.1" x2="181.41" y2="36.1" xlink:href="#b"/><linearGradient id="n" x1="82.66" y1="18.79" x2="76.52" y2="16.97" gradientTransform="rotate(.61 -1568.083 8923.176)" xlink:href="#b"/><linearGradient id="o" x1="3080.78" y1="-427.63" x2="3281.8" y2="-427.63" gradientTransform="matrix(.34 0 0 .34 -865.72 177.99)" xlink:href="#b"/><linearGradient id="p" x1="113.47" y1="15.95" x2="114.01" y2="19.53" gradientTransform="rotate(.61 -1568.083 8923.176)" xlink:href="#b"/><linearGradient id="q" x1="191.1" y1="32.94" x2="214.02" y2="32.94" xlink:href="#b"/><linearGradient id="r" x1="191.1" y1="33.11" x2="213.58" y2="33.11" xlink:href="#b"/><linearGradient id="s" x1="3.97" y1="31.54" x2="164.32" y2="31.54" gradientUnits="userSpaceOnUse"><stop offset="0" stop-color="#eed085"/><stop offset=".38" stop-color="#f0d58c"/><stop offset="1" stop-color="#c1832b"/></linearGradient><linearGradient id="a" x1="75.27" y1="9.83" x2="-6.2" y2="40.42" gradientTransform="rotate(.61 -1568.083 8923.176)" gradientUnits="userSpaceOnUse"><stop offset="0" stop-color="#eed085"/><stop offset="1" stop-color="#f0d58c" stop-opacity="0"/><stop offset="1" stop-color="#c1832b"/></linearGradient><linearGradient id="t" x1="70.81" y1="119.3" x2="188.87" y2="119.3" xlink:href="#c"/><linearGradient id="u" x1="273.45" y1="85.9" x2="302.52" y2="85.9" xlink:href="#c"/><linearGradient id="v" x1="299.39" y1="80.37" x2="323.35" y2="80.37" xlink:href="#c"/><linearGradient id="w" x1="334.64" y1="85.9" x2="374.17" y2="85.9" xlink:href="#c"/><linearGradient id="x" x1="370.73" y1="80.37" x2="401.93" y2="80.37" xlink:href="#c"/><linearGradient id="y" x1="409.29" y1="85.9" x2="435.8" y2="85.9" xlink:href="#c"/><linearGradient id="z" x1="445.38" y1="85.9" x2="471.93" y2="85.9" xlink:href="#c"/><linearGradient id="A" x1="470.2" y1="85.9" x2="501.39" y2="85.9" xlink:href="#c"/><linearGradient id="B" x1="505.69" y1="85.9" x2="532.2" y2="85.9" xlink:href="#c"/><linearGradient id="C" x1="221.19" y1="142.87" x2="248.68" y2="142.87" xlink:href="#c"/><linearGradient id="D" x1="244.33" y1="142.87" x2="285.82" y2="142.87" xlink:href="#c"/><linearGradient id="E" x1="281.47" y1="142.87" x2="320.98" y2="142.87" xlink:href="#c"/><linearGradient id="F" x1="325.02" y1="142.87" x2="366.72" y2="142.87" xlink:href="#c"/><linearGradient id="G" x1="365.53" y1="142.87" x2="407.02" y2="142.87" xlink:href="#c"/><linearGradient id="H" x1="425.71" y1="142.87" x2="453.2" y2="142.87" xlink:href="#c"/><linearGradient id="I" x1="451.28" y1="136.29" x2="487.45" y2="136.29" xlink:href="#c"/><linearGradient id="J" x1="486.09" y1="142.87" x2="527.8" y2="142.87" xlink:href="#c"/><clipPath id="d"><path fill="none" d="M94.76 11.33h158.08V63.5H94.76z"/></clipPath></defs><g data-name="Layer 2"><g data-name="Layer 1"><g clip-path="url(#d)"><path fill="url(#a)" d="M190.5 38.8L62.93 66.24l-.26-17.77 122.42-17.82 5.41 8.15z"/><path fill="url(#e)" d="M208.59 30.55L64.15 55.63l-.87-1.73 144.4-25.35.91 2z"/><path fill="url(#f)" d="M207.9 37.11L64.72 68.58l-.94-1.69L206.9 35.16l1 1.95z"/><path d="M167.85 18.59c1.59-.33 2.78-.62 3.37-.17s6.25 5.21 6.25 5.21-5.64 2.78-6.71.92c-.97-1.69-2.91-5.96-2.91-5.96z" fill="url(#b)"/><path d="M244.65 24.78l-.26-.18z" fill="url(#g)"/><path d="M244.23 24.51l-.48-.26a5 5 0 01.48.26z" fill="url(#h)"/><path d="M247.08 25.43c-.93-.27-1.94-.46-2.09-.49a.72.72 0 01-.34-.16l.08.06a9.5 9.5 0 00-1 .2c-.33.1-.59.51-1.17.61s-1.58 0-1.71-.37a.71.71 0 010-.57l2.78-.54a7.22 7.22 0 00-1.56-.53 24.06 24.06 0 00-6.18-.34c-2.17.16-7.15 1.14-10.22 1.59s-11.74 2.05-13.15 2.3-16.8 3.1-17 3.15a25.18 25.18 0 01-2.55-.11c-1.53-.08-4.85-.52-6-.7a6.87 6.87 0 01-2.78-1.12c-.59-.42-10.53-8.45-11.3-9.1s-1.5-1.23-1.7-1.39-.66-.17-1.46-.09a24.74 24.74 0 00-2.55.53s1.92 4.46 2.78 6.34 4.7 10 4.7 10-1.45.36-1.67.43-.24.13-.24.13-1.35 1-1.36 1.19 1.15.95 1.36 1.16a1.26 1.26 0 01.25.64s7 1 9.55 1.23a94.65 94.65 0 0013.55.21c3.59-.39 9.34-1.28 14.67-2.31s9.21-1.66 10.94-2c0 0 17-3 20.65-4.17s6.57-3.47 6.64-4.21-1-1.3-1.92-1.57zm-45 8.23l-.31.07a.13.13 0 01-.15-.09l-.11-.53a.12.12 0 01.09-.15l.31-.07a.13.13 0 01.15.1l.11.52a.12.12 0 01-.08.15zm1-.2l-.31.07a.13.13 0 01-.15-.09l-.12-.53a.13.13 0 01.1-.15l.31-.06a.11.11 0 01.14.09l.12.52a.12.12 0 01-.03.15zm1.05-.2l-.32.07a.12.12 0 01-.14-.09l-.12-.53a.12.12 0 01.09-.14l.32-.07a.11.11 0 01.14.09l.12.53a.12.12 0 01-.03.14zm1-.2l-.31.07a.11.11 0 01-.14-.09l-.12-.53a.11.11 0 01.09-.14l.31-.07a.13.13 0 01.15.09l.12.53a.12.12 0 010 .14zm1.05-.19l-.31.06a.12.12 0 01-.15-.09l-.11-.53a.11.11 0 01.09-.14l.31-.07a.13.13 0 01.15.09l.11.53a.12.12 0 01.01.15zm1.05-.2l-.31.07a.13.13 0 01-.15-.1l-.12-.52a.13.13 0 01.1-.15l.31-.07a.12.12 0 01.14.09l.12.53a.13.13 0 01.01.15zm1-.2l-.32.07a.12.12 0 01-.14-.09l-.12-.53a.13.13 0 01.09-.15l.32-.07a.12.12 0 01.14.1l.12.52a.13.13 0 01.06.15zm2.09-.4l-.31.07a.13.13 0 01-.15-.09l-.12-.53a.12.12 0 01.1-.14l.31-.07a.12.12 0 01.15.09l.11.53a.11.11 0 01.06.14zm1.05-.2l-.31.07a.11.11 0 01-.15-.09l-.12-.53a.12.12 0 01.1-.14l.31-.07a.11.11 0 01.14.09l.12.53a.12.12 0 01.06.14zm1-.2l-.32.07a.11.11 0 01-.14-.09l-.12-.53a.12.12 0 01.09-.14l.31-.07a.13.13 0 01.15.09l.12.53a.12.12 0 01.11.14zm1-.19l-.31.07a.14.14 0 01-.15-.1l-.11-.52a.12.12 0 01.09-.15l.31-.07a.13.13 0 01.15.09l.12.53a.13.13 0 01.14.15zm1-.2l-.31.07a.13.13 0 01-.15-.1l-.12-.52a.13.13 0 01.1-.15l.31-.07a.13.13 0 01.15.1l.11.52a.12.12 0 01.2.15zm.89-.17a.27.27 0 01-.33-.21l-.05-.21a.27.27 0 01.21-.34.29.29 0 01.34.21l.05.22a.28.28 0 01.07.33zm1.21-.23l-.32.07a.12.12 0 01-.14-.09l-.12-.53a.12.12 0 01.09-.14l.31-.07a.11.11 0 01.15.09l.12.53a.12.12 0 01.2.14zm1-.2l-.31.07a.12.12 0 01-.15-.09l-.11-.53a.11.11 0 01.09-.14l.31-.07a.12.12 0 01.15.09l.12.53a.12.12 0 01.23.14zm1-.2l-.31.07a.12.12 0 01-.15-.09l-.12-.53a.12.12 0 01.1-.14l.31-.07a.13.13 0 01.15.09l.11.53a.11.11 0 01.29.14zm1.05-.19l-.31.07a.13.13 0 01-.15-.1l-.12-.52a.13.13 0 01.09-.15l.32-.07a.12.12 0 01.14.09l.12.53a.13.13 0 01.29.15zm1-.2l-.32.07a.12.12 0 01-.14-.1l-.12-.52a.13.13 0 01.09-.15l.31-.07a.13.13 0 01.15.09l.12.53a.13.13 0 01.39.15zm3.14-.6l-.31.07a.12.12 0 01-.15-.09l-.12-.53a.12.12 0 01.09-.14l.32-.07a.11.11 0 01.14.09l.12.53a.12.12 0 01.34.14zm1-.2l-.32.07a.11.11 0 01-.14-.09l-.12-.53a.12.12 0 01.09-.14l.31-.07a.12.12 0 01.15.09l.12.53a.12.12 0 01.39.14zm1-.19l-.31.06a.12.12 0 01-.15-.09l-.11-.52a.11.11 0 01.09-.15l.31-.07a.13.13 0 01.15.09l.12.53a.13.13 0 01.42.15zm1-.2l-.31.07a.13.13 0 01-.15-.1l-.12-.52a.13.13 0 01.1-.15l.31-.07a.13.13 0 01.15.09l.11.53a.12.12 0 01.48.15zm1.05-.2l-.31.07a.13.13 0 01-.15-.09l-.12-.53a.13.13 0 01.09-.15l.32-.07a.12.12 0 01.14.1l.12.52a.13.13 0 01.48.15zm1.05-.2l-.32.07a.12.12 0 01-.14-.09l-.12-.53a.13.13 0 01.09-.15l.31-.06a.11.11 0 01.15.09l.12.52a.13.13 0 01.48.15zm1-.2l-.31.07a.13.13 0 01-.15-.09l-.11-.53a.11.11 0 01.09-.14l.31-.07a.12.12 0 01.15.09l.12.53a.12.12 0 01.51.14zm1-.2l-.31.07a.12.12 0 01-.15-.09l-.12-.53a.12.12 0 01.1-.14l.31-.07a.13.13 0 01.15.09l.11.53a.11.11 0 01.57.14zm1.05-.19l-.31.06a.11.11 0 01-.15-.09l-.12-.53a.12.12 0 01.09-.14l.32-.07a.12.12 0 01.14.09l.12.53a.13.13 0 01.57.15z" fill="url(#i)"/><path d="M208.15 29.36c9.94-1.64 25.57-4.75 30.74-5.78l1.13-.23a26.78 26.78 0 00-4.21-.05c-2.18.16-7.15 1.14-10.22 1.59s-11.74 2.05-13.16 2.3-16.79 3.1-17 3.15a12.12 12.12 0 01-1.78-.07c-4.74 1.28-8.94 2.28-10.08 2.64 2.73.44 12.53-1.57 24.58-3.55z" fill="url(#j)"/><path d="M181.23 36l-6.66 1.06a10.27 10.27 0 00-1.4 1.19c.69.1 2.89.41 5.08.7 1.31-.82 2.87-2.13 2.98-2.95z" opacity=".57" fill="url(#k)"/><path d="M195.37 30.36s-8.87 2-13.32 3-2.13 0 11.35-3.15c.32.07 1.97.15 1.97.15z" fill="url(#l)"/><path d="M181.29 35.85L170.63 35a17.23 17.23 0 00-2.63.33c-.09 0-.54.26-.33.33 1.1.33 5.06 1.06 6.35 1.33a17 17 0 006.37-.16c.91-.41 1.21-.93.9-.98z" fill="url(#m)"/><path d="M180.94 36.19l-10.66-.86a18.57 18.57 0 00-2.64.33s4.43 1.34 6 1.67a17.39 17.39 0 006.5-.4c1.11-.46 1.11-.7.8-.74z" fill="url(#n)"/><path d="M180.74 39.3l1.76.19a94.65 94.65 0 0013.55.21c3.59-.39 9.34-1.28 14.67-2.31s9.21-1.66 10.94-2c0 0 17-3 20.65-4.17s6.62-3.48 6.69-4.22a.79.79 0 00-.11-.5z" fill="url(#o)"/><path d="M213.57 33.14l-1.69.3-8.53 1.61c-.45 1.59-.39 2.92.27 3.6 1.48-.24 3-.51 4.55-.78a29.67 29.67 0 005.4-4.73z" fill="url(#p)"/><path d="M214 33.05c0-.1-.28-.2-.94-.2-.43 0-17.53.06-17.92 0-.9 0-2.8-1.79-3.09-2-.11-.1-.2-.09-.51 0s-.49.17-.46.22a28 28 0 002.19 2.34 1.36 1.36 0 00.53.26 83.14 83.14 0 0010.23 1.39 6.1 6.1 0 001.5-.07c2.65-.55 5.51-1.14 6.53-1.47a11.47 11.47 0 011.94-.47z" fill="url(#q)"/><path d="M213.57 33.14c0-.1-.69-.1-.69-.1s-17.53.07-17.92.05c-.9 0-2.78-1.8-3.09-2.05s-.77.05-.77.05a27.17 27.17 0 002 2.53 1.28 1.28 0 00.54.27 80.71 80.71 0 0010.23 1.38 6.12 6.12 0 001.5-.06c2.65-.56 5.53-1.26 6.54-1.59a12.5 12.5 0 001.66-.48z" fill="url(#r)"/></g><path d="M164.32 31.4C116.1-22 28-4.54 4 63.09c30.9-13.45 97.16-22.42 160.32-31.69z" fill="url(#s)"/><path d="M58.75 143c1.54 3.29 3 13.82 3 13.82S88.13 75 93.16 58.91C46.66 65.18-3.72 71 .22 105.15 4 137.68 25.07 166.5 50.5 179.29c.26-1.66 4.15-45.09 8.25-36.29z" fill="url(#c)"/><path d="M110.72 57.18c-12 26.43-32.49 96.41-39.91 129.66 81.42 20 145.71-66.68 106-138-22.33 3.16-58.27 7.49-66.09 8.34z" fill="url(#t)"/><path d="M285.44 101.5h-8.21l-3.78-31.2h8.17l1.62 21.88h.11l11-21.88h8.21z" fill="url(#u)"/><path d="M299.39 101.5L306 70.3h17.33l-1.49 7h-9.69l-1 4.86h9.39l-1.49 7h-9.38l-1.15 5.35h9.69l-1.48 7zm11.94-32.7l-1.13-4.13 11.29-5.44 1.16 5z" fill="url(#v)"/><path d="M360.22 101.5l5.2-23.36-.06-.08-11.62 23.44h-5.27l-1.69-23.44-.1.08L342 101.5h-7.33l6.63-31.2h10.24l1.84 20.54h.08L363.9 70.3h10.27l-6.63 31.2z" fill="url(#w)"/><path d="M393.28 101.5l-.55-4.5h-10.82l-2.62 4.51h-8.56l19.14-31.2h6.28l5.78 31.2zM391 80h-.12l-5.48 10.65h6.6zm-1-11.2l-1.11-4.13 11.28-5.44 1.17 5z" fill="url(#x)"/><path d="M422.36 90.16L420 101.5h-8l2.41-11.34-5.12-19.86h8.65l2 12.54 7.33-12.54h8.56z" fill="url(#y)"/><path d="M466.06 98.8a13 13 0 01-5.31 2.37 16.88 16.88 0 01-2.61.29H445.38L452 70.3h9.61c1.21 0 2.12 0 2.76.07a13.42 13.42 0 012.55.35 6.52 6.52 0 014 2.63 6.33 6.33 0 01.76 5.14 8.82 8.82 0 01-5 6.28c3.18 1.18 4.39 3.59 3.6 7.24a10.76 10.76 0 01-4.22 6.79zm-3.91-9.48a4.75 4.75 0 00-2.45-.5h-4l-1.2 5.68h3.95a5.42 5.42 0 002.76-.62 3.37 3.37 0 001.62-2.36 1.89 1.89 0 00-.68-2.2zm1.16-11.57a3.71 3.71 0 00-2.08-.45h-3.07l-1 4.86h3q3.16 0 3.7-2.49a1.67 1.67 0 00-.55-1.92z" fill="url(#z)"/><path d="M492.75 101.5l-.56-4.5h-10.82l-2.61 4.51h-8.56l19.13-31.2h6.28l5.78 31.2zM490.49 80h-.13l-5.47 10.65h6.54z" fill="url(#A)"/><path d="M518.76 90.16l-2.41 11.34h-8l2.41-11.34-5.07-19.86h8.65l2 12.54 7.33-12.54h8.56z" fill="url(#B)"/><path d="M239.07 132l-6.52 30.65h-10.09L229 132h-7.79l1.87-8.86h25.62l-1.89 8.86z" fill="url(#C)"/><path d="M267.34 162.63l3.37-15.79h-12.93l-3.36 15.79h-10.09l8.39-39.51h10.09L259.66 138h12.92l3.16-14.86h10.08l-8.39 39.51z" fill="url(#D)"/><path d="M310 162.63l-.71-5.71h-13.67l-3.31 5.71h-10.84l24.24-39.51h8l7.29 39.51zm-2.87-27.21H307l-6.93 13.5h8.29z" fill="url(#E)"/><path d="M349.57 162.63l-9.93-24-.13.05-4.82 24H325l8.39-39.51h8.71l10 24.84.13-.11 4.79-24.73h9.67l-8.39 39.51z" fill="url(#F)"/><path d="M388.54 162.63l3.36-15.79H379l-3.36 15.79h-10.11l8.39-39.51H384L380.85 138h12.93l3.15-14.86H407l-8.39 39.51z" fill="url(#G)"/><path d="M443.58 132l-6.51 30.65H427l6.5-30.65h-7.79l1.87-8.86h25.62l-1.87 8.86z" fill="url(#H)"/><path d="M482.37 147a29.8 29.8 0 01-2.06 6.54 17 17 0 01-4.46 5.58 18 18 0 01-11.94 4.28 17.29 17.29 0 01-6-1 9.34 9.34 0 01-4.51-3.26 10.6 10.6 0 01-2.14-5.63 17.12 17.12 0 01.13-3c.12-.91.33-2.07.63-3.5l5.08-23.87h10.08L462.14 147a23.78 23.78 0 00-.41 2.69 7.2 7.2 0 00.2 2.42q.69 2.43 3.76 2.43a5.37 5.37 0 004.77-2.38 10.44 10.44 0 001.14-2.39c.21-.7.44-1.62.68-2.77l5.08-23.87h10.09zm-7.2-25.77l-12-5.76 4.06-6.26 11.49 6.79z" fill="url(#I)"/><path d="M510.65 162.63l-9.93-24-.13.05-4.83 24h-9.67l8.4-39.51h8.7l10 24.84.13-.11 4.8-24.73h9.67l-8.4 39.51z" fill="url(#J)"/><path d="M571.27 142.25a26.31 26.31 0 01-9.2 15.14 25.11 25.11 0 01-16.39 6.05q-8.76 0-13.58-6t-3-14.75a24.8 24.8 0 019.33-14.62 25.61 25.61 0 0116.13-5.71 17.7 17.7 0 0111.37 3.83 13.87 13.87 0 015.42 10.14H560q-1.78-5.12-7.61-5.11a12.5 12.5 0 00-8.55 3.39 14.6 14.6 0 00-4.69 8.08c-.72 3.33-.34 6.11 1.12 8.34s3.92 3.52 7.19 3.52a12.84 12.84 0 006.23-1.54 10.8 10.8 0 004.56-4.82h-11.74l1.72-8.06h23.43l-.16 1.05z" fill="url(#K)"/></g></g></svg>