<svg style="position:absolute;width:0;height:0" xmlns="http://www.w3.org/2000/svg" overflow="hidden"><defs><symbol id="back-top" viewBox="0 0 284.929 284.929"><path class="active-path" d="M282.082 195.285L149.028 62.24c-1.901-1.903-4.088-2.856-6.562-2.856s-4.665.953-6.567 2.856L2.856 195.285C.95 197.191 0 199.378 0 201.853c0 2.474.953 4.664 2.856 6.566l14.272 14.271c1.903 1.903 4.093 2.854 6.567 2.854s4.664-.951 6.567-2.854l112.204-112.202 112.208 112.209c1.902 1.903 4.093 2.848 6.563 2.848 2.478 0 4.668-.951 6.57-2.848l14.274-14.277c1.902-1.902 2.847-4.093 2.847-6.566.001-2.476-.944-4.666-2.846-6.569z"/></symbol><symbol id="svg-icon1" viewBox="0 0 40 32.34"/><symbol id="svg-icon2" viewBox="0 0 50 27.64"/><symbol id="svg-icon3" viewBox="0 0 35 27.4"/></defs></svg>