<svg xmlns="http://www.w3.org/2000/svg" xmlns:xlink="http://www.w3.org/1999/xlink" viewBox="0 0 571.66 189.76"><defs><style>.cls-1{fill:none;}.cls-2{clip-path:url(#clip-path);}.cls-3{fill:url(#linear-gradient);}.cls-4{fill:url(#linear-gradient-2);}.cls-5{fill:url(#linear-gradient-3);}.cls-6{fill:url(#linear-gradient-4);}.cls-7{fill:url(#linear-gradient-5);}.cls-8{fill:url(#linear-gradient-6);}.cls-9{fill:url(#linear-gradient-7);}.cls-10{fill:url(#linear-gradient-8);}.cls-11{opacity:0.57;fill:url(#linear-gradient-9);}.cls-12{fill:url(#linear-gradient-10);}.cls-13{fill:url(#linear-gradient-11);}.cls-14{fill:url(#linear-gradient-12);}.cls-15{fill:url(#linear-gradient-13);}.cls-16{fill:url(#linear-gradient-14);}.cls-17{fill:url(#linear-gradient-15);}.cls-18{fill:url(#linear-gradient-16);}.cls-19{fill:url(#linear-gradient-17);}.cls-20{fill:url(#linear-gradient-18);}.cls-21{fill:url(#linear-gradient-19);}.cls-22{fill:url(#linear-gradient-20);}.cls-23{fill:url(#linear-gradient-21);}.cls-24{fill:url(#linear-gradient-22);}.cls-25{fill:url(#linear-gradient-23);}.cls-26{fill:url(#linear-gradient-24);}.cls-27{fill:url(#linear-gradient-25);}.cls-28{fill:url(#linear-gradient-26);}.cls-29{fill:url(#linear-gradient-27);}.cls-30{fill:url(#linear-gradient-28);}.cls-31{fill:url(#linear-gradient-29);}.cls-32{fill:url(#linear-gradient-30);}.cls-33{fill:url(#linear-gradient-31);}.cls-34{fill:url(#linear-gradient-32);}.cls-35{fill:url(#linear-gradient-33);}.cls-36{fill:url(#linear-gradient-34);}.cls-37{fill:url(#linear-gradient-35);}.cls-38{fill:url(#linear-gradient-36);}</style><clipPath id="clip-path"><rect class="cls-1" x="94.76" y="11.33" width="158.08" height="52.17"/></clipPath><linearGradient id="linear-gradient" x1="75.27" y1="9.83" x2="-6.2" y2="40.42" gradientTransform="translate(94.91 17.2) rotate(0.61)" gradientUnits="userSpaceOnUse"><stop offset="0" stop-color="#eed085"/><stop offset="1" stop-color="#f0d58c" stop-opacity="0"/><stop offset="1" stop-color="#c1832b"/></linearGradient><linearGradient id="linear-gradient-2" x1="86.42" y1="-61.21" x2="-5.37" y2="-26.74" gradientTransform="translate(99.15 81.98) rotate(3.17)" xlink:href="#linear-gradient"/><linearGradient id="linear-gradient-3" x1="93.17" y1="14.88" x2="1.39" y2="49.35" xlink:href="#linear-gradient"/><linearGradient id="linear-gradient-4" x1="170.22" y1="18.53" x2="174.82" y2="25.11" gradientUnits="userSpaceOnUse"><stop offset="0" stop-color="#c8912b"/><stop offset="0.5" stop-color="#f0d58c"/><stop offset="0.6" stop-color="#efd384"/><stop offset="0.75" stop-color="#eccd6f"/><stop offset="0.93" stop-color="#e6c34d"/><stop offset="1" stop-color="#e4be3d"/></linearGradient><linearGradient id="linear-gradient-5" x1="244.51" y1="24.71" x2="244.52" y2="24.66" xlink:href="#linear-gradient-4"/><linearGradient id="linear-gradient-6" x1="243.99" y1="24.4" x2="244" y2="24.35" xlink:href="#linear-gradient-4"/><linearGradient id="linear-gradient-7" x1="204.35" y1="36.33" x2="208.15" y2="22.42" xlink:href="#linear-gradient-4"/><linearGradient id="linear-gradient-8" x1="116.81" y1="8.73" x2="117.02" y2="9.85" gradientTransform="translate(94.91 17.2) rotate(0.61)" xlink:href="#linear-gradient-4"/><linearGradient id="linear-gradient-9" x1="82.46" y1="18.88" x2="82.87" y2="21.59" gradientTransform="translate(94.91 17.2) rotate(0.61)" xlink:href="#linear-gradient-4"/><linearGradient id="linear-gradient-10" x1="99.49" y1="15.81" x2="86.34" y2="11.93" gradientTransform="translate(94.91 17.2) rotate(0.61)" xlink:href="#linear-gradient-4"/><linearGradient id="linear-gradient-11" x1="167.59" y1="36.1" x2="181.41" y2="36.1" xlink:href="#linear-gradient-4"/><linearGradient id="linear-gradient-12" x1="82.66" y1="18.79" x2="76.52" y2="16.97" gradientTransform="translate(94.91 17.2) rotate(0.61)" xlink:href="#linear-gradient-4"/><linearGradient id="linear-gradient-13" x1="3080.78" y1="-427.63" x2="3281.8" y2="-427.63" gradientTransform="translate(-865.72 177.99) scale(0.34 0.34)" xlink:href="#linear-gradient-4"/><linearGradient id="linear-gradient-14" x1="113.47" y1="15.95" x2="114.01" y2="19.53" gradientTransform="translate(94.91 17.2) rotate(0.61)" xlink:href="#linear-gradient-4"/><linearGradient id="linear-gradient-15" x1="191.1" y1="32.94" x2="214.02" y2="32.94" xlink:href="#linear-gradient-4"/><linearGradient id="linear-gradient-16" x1="191.1" y1="33.11" x2="213.58" y2="33.11" xlink:href="#linear-gradient-4"/><linearGradient id="linear-gradient-17" x1="3.97" y1="31.54" x2="164.32" y2="31.54" gradientUnits="userSpaceOnUse"><stop offset="0" stop-color="#eed085"/><stop offset="0.38" stop-color="#f0d58c"/><stop offset="1" stop-color="#c1832b"/></linearGradient><linearGradient id="linear-gradient-18" y1="119.1" x2="93.16" y2="119.1" gradientUnits="userSpaceOnUse"><stop offset="0" stop-color="#eed085"/><stop offset="0.08" stop-color="#f0d58c"/><stop offset="1" stop-color="#c1832b"/></linearGradient><linearGradient id="linear-gradient-19" x1="70.81" y1="119.3" x2="188.87" y2="119.3" xlink:href="#linear-gradient-18"/><linearGradient id="linear-gradient-20" x1="273.45" y1="85.9" x2="302.52" y2="85.9" xlink:href="#linear-gradient-18"/><linearGradient id="linear-gradient-21" x1="299.39" y1="80.37" x2="323.35" y2="80.37" xlink:href="#linear-gradient-18"/><linearGradient id="linear-gradient-22" x1="334.64" y1="85.9" x2="374.17" y2="85.9" xlink:href="#linear-gradient-18"/><linearGradient id="linear-gradient-23" x1="370.73" y1="80.37" x2="401.93" y2="80.37" xlink:href="#linear-gradient-18"/><linearGradient id="linear-gradient-24" x1="409.29" y1="85.9" x2="435.8" y2="85.9" xlink:href="#linear-gradient-18"/><linearGradient id="linear-gradient-25" x1="445.38" y1="85.9" x2="471.93" y2="85.9" xlink:href="#linear-gradient-18"/><linearGradient id="linear-gradient-26" x1="470.2" y1="85.9" x2="501.39" y2="85.9" xlink:href="#linear-gradient-18"/><linearGradient id="linear-gradient-27" x1="505.69" y1="85.9" x2="532.2" y2="85.9" xlink:href="#linear-gradient-18"/><linearGradient id="linear-gradient-28" x1="221.19" y1="142.87" x2="248.68" y2="142.87" xlink:href="#linear-gradient-18"/><linearGradient id="linear-gradient-29" x1="244.33" y1="142.87" x2="285.82" y2="142.87" xlink:href="#linear-gradient-18"/><linearGradient id="linear-gradient-30" x1="281.47" y1="142.87" x2="320.98" y2="142.87" xlink:href="#linear-gradient-18"/><linearGradient id="linear-gradient-31" x1="325.02" y1="142.87" x2="366.72" y2="142.87" xlink:href="#linear-gradient-18"/><linearGradient id="linear-gradient-32" x1="365.53" y1="142.87" x2="407.02" y2="142.87" xlink:href="#linear-gradient-18"/><linearGradient id="linear-gradient-33" x1="425.71" y1="142.87" x2="453.2" y2="142.87" xlink:href="#linear-gradient-18"/><linearGradient id="linear-gradient-34" x1="451.28" y1="136.29" x2="487.45" y2="136.29" xlink:href="#linear-gradient-18"/><linearGradient id="linear-gradient-35" x1="486.09" y1="142.87" x2="527.8" y2="142.87" xlink:href="#linear-gradient-18"/><linearGradient id="linear-gradient-36" x1="528.59" y1="142.91" x2="571.66" y2="142.91" xlink:href="#linear-gradient-18"/></defs><g id="Layer_2" data-name="Layer 2"><g id="Layer_1-2" data-name="Layer 1"><g class="cls-2"><polygon class="cls-3" points="190.5 38.8 62.93 66.24 62.67 48.47 185.09 30.65 190.5 38.8"/><polygon class="cls-4" points="208.59 30.55 64.15 55.63 63.28 53.9 207.68 28.55 208.59 30.55"/><polygon class="cls-5" points="207.9 37.11 64.72 68.58 63.78 66.89 206.9 35.16 207.9 37.11"/><path class="cls-6" d="M167.85,18.59c1.59-.33,2.78-.62,3.37-.17s6.25,5.21,6.25,5.21-5.64,2.78-6.71.92C169.79,22.86,167.85,18.59,167.85,18.59Z"/><path class="cls-7" d="M244.65,24.78l-.26-.18Z"/><path class="cls-8" d="M244.23,24.51l-.48-.26A5,5,0,0,1,244.23,24.51Z"/><path class="cls-9" d="M247.08,25.43c-.93-.27-1.94-.46-2.09-.49a.72.72,0,0,1-.34-.16l.08.06a9.5,9.5,0,0,0-1,.2c-.33.1-.59.51-1.17.61s-1.58,0-1.71-.37a.71.71,0,0,1,0-.57l2.78-.54a7.22,7.22,0,0,0-1.56-.53,24.06,24.06,0,0,0-6.18-.34c-2.17.16-7.15,1.14-10.22,1.59s-11.74,2.05-13.15,2.3-16.8,3.1-17,3.15a25.18,25.18,0,0,1-2.55-.11c-1.53-.08-4.85-.52-6-.7a6.87,6.87,0,0,1-2.78-1.12c-.59-.42-10.53-8.45-11.3-9.1s-1.5-1.23-1.7-1.39-.66-.17-1.46-.09a24.74,24.74,0,0,0-2.55.53s1.92,4.46,2.78,6.34,4.7,10,4.7,10-1.45.36-1.67.43-.24.13-.24.13-1.35,1-1.36,1.19,1.15.95,1.36,1.16a1.26,1.26,0,0,1,.25.64s7,1,9.55,1.23a94.65,94.65,0,0,0,13.55.21c3.59-.39,9.34-1.28,14.67-2.31s9.21-1.66,10.94-2c0,0,17-3,20.65-4.17S248.93,27.74,249,27,248,25.7,247.08,25.43Zm-45,8.23-.31.07a.13.13,0,0,1-.15-.09l-.11-.53a.12.12,0,0,1,.09-.15l.31-.07a.13.13,0,0,1,.15.1l.11.52A.12.12,0,0,1,202.09,33.66Zm1-.2-.31.07a.13.13,0,0,1-.15-.09l-.12-.53a.13.13,0,0,1,.1-.15l.31-.06a.11.11,0,0,1,.14.09l.12.52A.12.12,0,0,1,203.14,33.46Zm1.05-.2-.32.07a.12.12,0,0,1-.14-.09l-.12-.53a.12.12,0,0,1,.09-.14l.32-.07a.11.11,0,0,1,.14.09l.12.53A.12.12,0,0,1,204.19,33.26Zm1-.2-.31.07a.11.11,0,0,1-.14-.09l-.12-.53a.11.11,0,0,1,.09-.14l.31-.07a.13.13,0,0,1,.15.09l.12.53A.12.12,0,0,1,205.23,33.06Zm1.05-.19-.31.06a.12.12,0,0,1-.15-.09l-.11-.53a.11.11,0,0,1,.09-.14l.31-.07a.13.13,0,0,1,.15.09l.11.53A.12.12,0,0,1,206.28,32.87Zm1.05-.2-.31.07a.13.13,0,0,1-.15-.1l-.12-.52a.13.13,0,0,1,.1-.15l.31-.07a.12.12,0,0,1,.14.09l.12.53A.13.13,0,0,1,207.33,32.67Zm1-.2-.32.07a.12.12,0,0,1-.14-.09l-.12-.53a.13.13,0,0,1,.09-.15l.32-.07a.12.12,0,0,1,.14.1l.12.52A.13.13,0,0,1,208.38,32.47Zm2.09-.4-.31.07a.13.13,0,0,1-.15-.09l-.12-.53a.12.12,0,0,1,.1-.14l.31-.07a.12.12,0,0,1,.15.09l.11.53A.11.11,0,0,1,210.47,32.07Zm1.05-.2-.31.07a.11.11,0,0,1-.15-.09l-.12-.53a.12.12,0,0,1,.1-.14l.31-.07a.11.11,0,0,1,.14.09l.12.53A.12.12,0,0,1,211.52,31.87Zm1-.2-.32.07a.11.11,0,0,1-.14-.09l-.12-.53a.12.12,0,0,1,.09-.14l.31-.07a.13.13,0,0,1,.15.09l.12.53A.12.12,0,0,1,212.57,31.67Zm1-.19-.31.07a.14.14,0,0,1-.15-.1l-.11-.52a.12.12,0,0,1,.09-.15l.31-.07a.13.13,0,0,1,.15.09l.12.53A.13.13,0,0,1,213.61,31.48Zm1-.2-.31.07a.13.13,0,0,1-.15-.1l-.12-.52a.13.13,0,0,1,.1-.15l.31-.07a.13.13,0,0,1,.15.1l.11.52A.12.12,0,0,1,214.66,31.28Zm.89-.17a.27.27,0,0,1-.33-.21l-.05-.21a.27.27,0,0,1,.21-.34.29.29,0,0,1,.34.21l.05.22A.28.28,0,0,1,215.55,31.11Zm1.21-.23-.32.07a.12.12,0,0,1-.14-.09l-.12-.53a.12.12,0,0,1,.09-.14l.31-.07a.11.11,0,0,1,.15.09l.12.53A.12.12,0,0,1,216.76,30.88Zm1-.2-.31.07a.12.12,0,0,1-.15-.09l-.11-.53a.11.11,0,0,1,.09-.14l.31-.07a.12.12,0,0,1,.15.09l.12.53A.12.12,0,0,1,217.8,30.68Zm1-.2-.31.07a.12.12,0,0,1-.15-.09l-.12-.53a.12.12,0,0,1,.1-.14l.31-.07a.13.13,0,0,1,.15.09l.11.53A.11.11,0,0,1,218.85,30.48Zm1.05-.19-.31.07a.13.13,0,0,1-.15-.1l-.12-.52a.13.13,0,0,1,.09-.15l.32-.07a.12.12,0,0,1,.14.09l.12.53A.13.13,0,0,1,219.9,30.29Zm1-.2-.32.07a.12.12,0,0,1-.14-.1l-.12-.52a.13.13,0,0,1,.09-.15l.31-.07a.13.13,0,0,1,.15.09l.12.53A.13.13,0,0,1,221,30.09Zm3.14-.6-.31.07a.12.12,0,0,1-.15-.09l-.12-.53a.12.12,0,0,1,.09-.14l.32-.07a.11.11,0,0,1,.14.09l.12.53A.12.12,0,0,1,224.09,29.49Zm1-.2-.32.07a.11.11,0,0,1-.14-.09l-.12-.53a.12.12,0,0,1,.09-.14l.31-.07a.12.12,0,0,1,.15.09l.12.53A.12.12,0,0,1,225.14,29.29Zm1-.19-.31.06a.12.12,0,0,1-.15-.09l-.11-.52a.11.11,0,0,1,.09-.15l.31-.07a.13.13,0,0,1,.15.09l.12.53A.13.13,0,0,1,226.18,29.1Zm1-.2-.31.07a.13.13,0,0,1-.15-.1l-.12-.52a.13.13,0,0,1,.1-.15l.31-.07a.13.13,0,0,1,.15.09l.11.53A.12.12,0,0,1,227.23,28.9Zm1.05-.2-.31.07a.13.13,0,0,1-.15-.09l-.12-.53a.13.13,0,0,1,.09-.15l.32-.07a.12.12,0,0,1,.14.1l.12.52A.13.13,0,0,1,228.28,28.7Zm1.05-.2-.32.07a.12.12,0,0,1-.14-.09l-.12-.53a.13.13,0,0,1,.09-.15l.31-.06a.11.11,0,0,1,.15.09l.12.52A.13.13,0,0,1,229.33,28.5Zm1-.2-.31.07a.13.13,0,0,1-.15-.09l-.11-.53a.11.11,0,0,1,.09-.14l.31-.07a.12.12,0,0,1,.15.09l.12.53A.12.12,0,0,1,230.37,28.3Zm1-.2-.31.07a.12.12,0,0,1-.15-.09l-.12-.53a.12.12,0,0,1,.1-.14l.31-.07a.13.13,0,0,1,.15.09l.11.53A.11.11,0,0,1,231.42,28.1Zm1.05-.19-.31.06a.11.11,0,0,1-.15-.09l-.12-.53a.12.12,0,0,1,.09-.14l.32-.07a.12.12,0,0,1,.14.09l.12.53A.13.13,0,0,1,232.47,27.91Z"/><path class="cls-10" d="M208.15,29.36c9.94-1.64,25.57-4.75,30.74-5.78l1.13-.23a26.78,26.78,0,0,0-4.21-.05c-2.18.16-7.15,1.14-10.22,1.59s-11.74,2.05-13.16,2.3-16.79,3.1-17,3.15a12.12,12.12,0,0,1-1.78-.07c-4.74,1.28-8.94,2.28-10.08,2.64C186.3,33.35,196.1,31.34,208.15,29.36Z"/><path class="cls-11" d="M181.23,36l-6.66,1.06a10.27,10.27,0,0,0-1.4,1.19c.69.1,2.89.41,5.08.7C179.56,38.13,181.12,36.82,181.23,36Z"/><path class="cls-12" d="M195.37,30.36s-8.87,2-13.32,3-2.13,0,11.35-3.15C193.72,30.28,195.37,30.36,195.37,30.36Z"/><path class="cls-13" d="M181.29,35.85,170.63,35a17.23,17.23,0,0,0-2.63.33h0c-.09,0-.54.26-.33.33,1.1.33,5.06,1.06,6.35,1.33a17,17,0,0,0,6.37-.16C181.3,36.42,181.6,35.9,181.29,35.85Z"/><path class="cls-14" d="M180.94,36.19l-10.66-.86a18.57,18.57,0,0,0-2.64.33s4.43,1.34,6,1.67a17.39,17.39,0,0,0,6.5-.4C181.25,36.47,181.25,36.23,180.94,36.19Z"/><path class="cls-15" d="M180.74,39.3l1.76.19a94.65,94.65,0,0,0,13.55.21c3.59-.39,9.34-1.28,14.67-2.31s9.21-1.66,10.94-2c0,0,17-3,20.65-4.17S248.93,27.74,249,27a.79.79,0,0,0-.11-.5Z"/><path class="cls-16" d="M213.57,33.14l-1.69.3-8.53,1.61c-.45,1.59-.39,2.92.27,3.6,1.48-.24,3-.51,4.55-.78A29.67,29.67,0,0,0,213.57,33.14Z"/><path class="cls-17" d="M214,33.05c0-.1-.28-.2-.94-.2-.43,0-17.53.06-17.92,0-.9,0-2.8-1.79-3.09-2-.11-.1-.2-.09-.51,0s-.49.17-.46.22a28,28,0,0,0,2.19,2.34,1.36,1.36,0,0,0,.53.26,83.14,83.14,0,0,0,10.23,1.39,6.1,6.1,0,0,0,1.5-.07c2.65-.55,5.51-1.14,6.53-1.47A11.47,11.47,0,0,1,214,33.05Z"/><path class="cls-18" d="M213.57,33.14c0-.1-.69-.1-.69-.1s-17.53.07-17.92.05c-.9,0-2.78-1.8-3.09-2.05s-.77.05-.77.05a27.17,27.17,0,0,0,2,2.53,1.28,1.28,0,0,0,.54.27,80.71,80.71,0,0,0,10.23,1.38,6.12,6.12,0,0,0,1.5-.06c2.65-.56,5.53-1.26,6.54-1.59A12.5,12.5,0,0,0,213.57,33.14Z"/></g><path class="cls-19" d="M164.32,31.4C116.1-22,28-4.54,4,63.09,34.9,49.64,101.16,40.67,164.32,31.4Z"/><path class="cls-20" d="M58.75,143c1.54,3.29,3,13.82,3,13.82S88.13,75,93.16,58.91C46.66,65.18-3.72,71,.22,105.15,4,137.68,25.07,166.5,50.5,179.29,50.76,177.63,54.65,134.2,58.75,143Z"/><path class="cls-21" d="M110.72,57.18c-12,26.43-32.49,96.41-39.91,129.66,81.42,20,145.71-66.68,106-138C154.48,52,118.54,56.33,110.72,57.18Z"/><path class="cls-22" d="M285.44,101.5h-8.21l-3.78-31.2h8.17l1.62,21.88h.11l11-21.88h8.21Z"/><path class="cls-23" d="M299.39,101.5,306,70.3h17.33l-1.49,7h-9.69l-1,4.86h9.39l-1.49,7h-9.38l-1.15,5.35h9.69l-1.48,7Zm11.94-32.7-1.13-4.13,11.29-5.44,1.16,5Z"/><path class="cls-24" d="M360.22,101.5l5.2-23.36-.06-.08L353.74,101.5h-5.27l-1.69-23.44-.1.08L342,101.5h-7.33l6.63-31.2h10.24l1.84,20.54h.08L363.9,70.3h10.27l-6.63,31.2Z"/><path class="cls-25" d="M393.28,101.5,392.73,97H381.91l-2.62,4.51h-8.56l19.14-31.2h6.28l5.78,31.2ZM391,80h-.12l-5.48,10.65H392ZM390,68.8l-1.11-4.13,11.28-5.44,1.17,5Z"/><path class="cls-26" d="M422.36,90.16,420,101.5h-8l2.41-11.34L409.29,70.3h8.65l2,12.54,7.33-12.54h8.56Z"/><path class="cls-27" d="M466.06,98.8a13,13,0,0,1-5.31,2.37,16.88,16.88,0,0,1-2.61.29l-1.38,0H445.38L452,70.3h9.61c1.21,0,2.12,0,2.76.07a13.42,13.42,0,0,1,2.55.35,6.52,6.52,0,0,1,4,2.63,6.33,6.33,0,0,1,.76,5.14,8.82,8.82,0,0,1-5,6.28c3.18,1.18,4.39,3.59,3.6,7.24A10.76,10.76,0,0,1,466.06,98.8Zm-3.91-9.48a4.75,4.75,0,0,0-2.45-.5h-4L454.5,94.5h3.95a5.42,5.42,0,0,0,2.76-.62,3.37,3.37,0,0,0,1.62-2.36A1.89,1.89,0,0,0,462.15,89.32Zm1.16-11.57a3.71,3.71,0,0,0-2.08-.45h-3.07l-1,4.86h3q3.16,0,3.7-2.49A1.67,1.67,0,0,0,463.31,77.75Z"/><path class="cls-28" d="M492.75,101.5,492.19,97H481.37l-2.61,4.51H470.2l19.13-31.2h6.28l5.78,31.2ZM490.49,80h-.13l-5.47,10.65h6.54Z"/><path class="cls-29" d="M518.76,90.16l-2.41,11.34h-8l2.41-11.34L505.69,70.3h8.65l2,12.54,7.33-12.54h8.56Z"/><path class="cls-30" d="M239.07,132l-6.52,30.65H222.46L229,132h-7.79l1.87-8.86h25.62L246.81,132Z"/><path class="cls-31" d="M267.34,162.63l3.37-15.79H257.78l-3.36,15.79H244.33l8.39-39.51h10.09L259.66,138h12.92l3.16-14.86h10.08l-8.39,39.51Z"/><path class="cls-32" d="M310,162.63l-.71-5.71H295.62l-3.31,5.71H281.47l24.24-39.51h8L321,162.63Zm-2.87-27.21H307l-6.93,13.5h8.29Z"/><path class="cls-33" d="M349.57,162.63l-9.93-24-.13.05-4.82,24H325l8.39-39.51h8.71l10,24.84.13-.11,4.79-24.73h9.67l-8.39,39.51Z"/><path class="cls-34" d="M388.54,162.63l3.36-15.79H379l-3.36,15.79H365.53l8.39-39.51H384L380.85,138h12.93l3.15-14.86H407l-8.39,39.51Z"/><path class="cls-35" d="M443.58,132l-6.51,30.65H427L433.5,132h-7.79l1.87-8.86H453.2L451.33,132Z"/><path class="cls-36" d="M482.37,147a29.8,29.8,0,0,1-2.06,6.54,17,17,0,0,1-4.46,5.58,18,18,0,0,1-11.94,4.28,17.29,17.29,0,0,1-6-1,9.34,9.34,0,0,1-4.51-3.26,10.6,10.6,0,0,1-2.14-5.63,17.12,17.12,0,0,1,.13-3c.12-.91.33-2.07.63-3.5l5.08-23.87h10.08L462.14,147a23.78,23.78,0,0,0-.41,2.69,7.2,7.2,0,0,0,.2,2.42q.69,2.43,3.76,2.43a5.37,5.37,0,0,0,4.77-2.38,10.44,10.44,0,0,0,1.14-2.39c.21-.7.44-1.62.68-2.77l5.08-23.87h10.09Zm-7.2-25.77-12-5.76,4.06-6.26L478.72,116Z"/><path class="cls-37" d="M510.65,162.63l-9.93-24-.13.05-4.83,24h-9.67l8.4-39.51h8.7l10,24.84.13-.11,4.8-24.73h9.67l-8.4,39.51Z"/><path class="cls-38" d="M571.27,142.25a26.31,26.31,0,0,1-9.2,15.14,25.11,25.11,0,0,1-16.39,6.05q-8.76,0-13.58-6t-3-14.75a24.8,24.8,0,0,1,9.33-14.62,25.61,25.61,0,0,1,16.13-5.71,17.7,17.7,0,0,1,11.37,3.83,13.87,13.87,0,0,1,5.42,10.14H560q-1.78-5.12-7.61-5.11a12.5,12.5,0,0,0-8.55,3.39,14.6,14.6,0,0,0-4.69,8.08c-.72,3.33-.34,6.11,1.12,8.34s3.92,3.52,7.19,3.52a12.84,12.84,0,0,0,6.23-1.54,10.8,10.8,0,0,0,4.56-4.82H546.51l1.72-8.06h23.43l-.16,1.05Z"/></g></g></svg>